<?xml version="1.0" standalone="no"?><svg xmlns="http://www.w3.org/2000/svg" viewBox="0 0 1440 320"><path fill="#6C63FF" fill-opacity="1" d="M0,32L30,42.7C60,53,120,75,180,96C240,117,300,139,360,133.3C420,128,480,96,540,122.7C600,149,660,235,720,277.3C780,320,840,320,900,320C960,320,1020,320,1080,314.7C1140,309,1200,299,1260,266.7C1320,235,1380,181,1410,154.7L1440,128L1440,320L1410,320C1380,320,1320,320,1260,320C1200,320,1140,320,1080,320C1020,320,960,320,900,320C840,320,780,320,720,320C660,320,600,320,540,320C480,320,420,320,360,320C300,320,240,320,180,320C120,320,60,320,30,320L0,320Z"></path></svg>